<svg xmlns="http://www.w3.org/2000/svg" xmlns:xlink="http://www.w3.org/1999/xlink" width="1920" zoomAndPan="magnify" viewBox="0 0 1440 809.999993" height="1080" preserveAspectRatio="xMidYMid meet" version="1.0"><defs><clipPath id="b472e24c6f"><path d="M 338 110 L 1140.820312 110 L 1140.820312 660 L 338 660 Z M 338 110 " clip-rule="nonzero"/></clipPath></defs><path fill="#ecf284" d="M 693.710938 574.953125 C 680.484375 530.082031 578.882812 127.214844 578.882812 127.214844 C 578.882812 127.214844 573.863281 90.542969 534.027344 97.242188 C 494.023438 103.9375 354.257812 123.863281 354.257812 123.863281 C 354.257812 123.863281 339.527344 124.199219 329.988281 137.761719 L 310.066406 162.042969 C 299.523438 176.105469 305.214844 197.707031 307.222656 211.9375 C 307.890625 216.460938 435.773438 671.402344 435.773438 671.402344 C 442.132812 690.492188 460.878906 699.53125 475.273438 695.679688 L 668.769531 643.105469 C 677.472656 637.242188 683.332031 632.386719 690.863281 625.859375 C 690.863281 626.023438 706.933594 619.828125 693.710938 574.953125 Z M 693.710938 574.953125 " fill-opacity="1" fill-rule="nonzero"/><g clip-path="url(#b472e24c6f)"><path fill="#10aeb2" d="M 402.296875 128.886719 L 406.144531 144.628906 C 407.148438 148.980469 411.5 151.828125 416.019531 150.988281 L 494.1875 136.925781 C 499.210938 136.085938 502.390625 130.898438 500.882812 126.039062 L 497.203125 113.984375 C 497.203125 113.984375 508.917969 113.984375 527.164062 110.636719 C 545.40625 107.289062 553.777344 133.910156 553.777344 133.910156 C 553.777344 133.910156 668.601562 550.007812 675.296875 578.304688 C 681.992188 606.601562 671.949219 614.972656 663.582031 616.648438 C 655.210938 618.324219 520.46875 651.644531 493.855469 658.339844 C 467.242188 665.039062 458.871094 631.71875 458.871094 631.71875 C 458.871094 631.71875 342.371094 202.058594 339.023438 168.738281 C 335.675781 135.417969 342.371094 140.441406 352.25 137.09375 Z M 1018.765625 272.554688 L 1012.070312 385.746094 L 1138.445312 398.972656 L 1140.621094 279.082031 Z M 1018.765625 272.554688 " fill-opacity="1" fill-rule="nonzero"/></g><path fill="#ebbba3" d="M 672.617188 276.570312 C 672.953125 288.460938 672.453125 299.847656 661.90625 307.046875 C 649.019531 315.753906 630.105469 312.070312 615.375 313.242188 C 596.292969 314.75 578.046875 319.4375 558.964844 319.4375 C 539.882812 319.4375 502.726562 333 499.546875 333.671875 C 488.664062 336.015625 479.125 343.382812 474.773438 353.59375 C 471.925781 360.460938 469.582031 366.992188 462.386719 370.675781 C 453.515625 375.195312 442.96875 374.359375 433.429688 374.191406 C 425.226562 374.023438 417.863281 380.050781 409.660156 375.867188 C 397.609375 369.503906 395.769531 347.734375 403.132812 337.519531 C 408.824219 329.484375 418.867188 325.128906 427.570312 321.113281 C 434.265625 317.929688 462.386719 306.542969 469.082031 303.699219 C 474.941406 301.1875 515.613281 288.125 529.507812 282.765625 C 551.097656 274.394531 574.03125 270.710938 596.125 264.179688 C 613.53125 258.992188 631.945312 255.640625 650.191406 255.472656 C 663.246094 255.472656 672.117188 263.511719 672.617188 276.570312 Z M 660.234375 495.253906 C 645.835938 492.238281 632.78125 484.367188 618.554688 481.019531 C 611.523438 479.34375 604.492188 479.847656 597.464844 478.171875 C 587.921875 475.828125 580.222656 472.980469 572.023438 467.625 C 567 464.441406 559.300781 454.0625 552.605469 458.246094 C 549.925781 459.921875 549.425781 462.769531 548.085938 465.28125 C 545.40625 470.304688 541.222656 473.820312 538.546875 478.84375 C 535.867188 484.035156 531.683594 487.214844 528.667969 492.238281 C 524.652344 498.9375 520.300781 505.632812 516.285156 512.332031 C 515.113281 514.171875 514.109375 517.019531 512.433594 518.527344 C 507.078125 523.550781 503.5625 520.535156 498.039062 519.699219 C 492.011719 518.695312 485.484375 517.855469 479.292969 517.1875 C 471.59375 516.515625 463.726562 516.015625 456.191406 516.015625 C 450.835938 516.015625 441.628906 516.351562 435.941406 518.023438 C 436.945312 521.707031 449.496094 568.089844 450 570.601562 C 450 570.433594 449.832031 569.933594 449.664062 569.261719 C 452.34375 570.769531 461.046875 578.304688 463.222656 579.308594 C 467.574219 581.484375 472.597656 581.988281 477.285156 583.160156 C 489.835938 586.339844 502.054688 588.519531 514.777344 591.195312 C 524.988281 593.375 534.695312 593.875 545.074219 594.546875 C 552.773438 595.046875 562.144531 596.21875 569.175781 592.203125 C 576.375 588.015625 582.230469 579.308594 588.089844 573.449219 C 596.460938 564.910156 603.488281 555.195312 612.027344 546.992188 C 615.542969 543.644531 619.558594 540.964844 623.242188 537.617188 C 627.59375 533.429688 630.773438 528.238281 634.789062 523.886719 C 642.15625 516.015625 649.519531 507.976562 658.390625 502.117188 C 658.726562 502.117188 658.894531 502.285156 659.226562 502.285156 C 663.582031 502.953125 664.75 496.257812 660.234375 495.253906 Z M 965.371094 297.835938 C 957.839844 293.820312 955.328125 294.992188 947.460938 295.324219 C 942.441406 295.660156 933.402344 298.171875 928.378906 298.507812 C 921.851562 298.84375 836.320312 316.925781 829.289062 316.925781 C 822.257812 316.925781 815.0625 312.90625 808.367188 310.730469 L 763.507812 286.117188 C 764.34375 284.273438 763.171875 281.429688 760.828125 281.09375 C 755.304688 280.421875 750.617188 275.566406 745.933594 281.09375 C 744.089844 283.269531 743.921875 285.445312 744.425781 288.292969 C 745.261719 292.648438 746.265625 297.503906 747.4375 301.855469 C 749.613281 311.398438 752.960938 323.121094 752.628906 333 C 752.460938 338.691406 750.117188 346.898438 755.808594 350.917969 C 757.816406 352.257812 759.824219 352.257812 762.167969 352.421875 C 767.523438 352.589844 772.042969 353.09375 777.234375 354.433594 C 788.28125 357.113281 798.824219 360.125 810.207031 361.96875 C 819.414062 363.476562 831.632812 364.980469 840.839844 362.46875 C 845.523438 361.296875 905.617188 338.359375 909.128906 337.019531 C 913.316406 335.511719 914.988281 333.835938 920.011719 335.679688 C 923.359375 337.019531 925.535156 340.535156 928.546875 342.710938 C 941.101562 351.25 959.679688 340.199219 968.886719 331.160156 C 977.757812 322.117188 977.253906 304.199219 965.371094 297.835938 Z M 912.644531 579.140625 C 904.945312 571.269531 898.082031 562.5625 891.054688 554.023438 C 878.164062 538.285156 865.277344 522.714844 851.550781 507.644531 C 838.328125 493.074219 822.929688 481.1875 808.535156 467.792969 C 801.167969 460.925781 793.46875 454.394531 785.265625 448.367188 C 782.085938 446.023438 778.238281 443.679688 774.386719 441.167969 C 770.539062 439.828125 766.855469 438.152344 763.003906 436.480469 C 762.503906 436.648438 762.167969 436.816406 761.667969 436.980469 C 761.164062 437.148438 760.828125 437.484375 760.328125 437.652344 C 760.496094 437.820312 760.496094 437.820312 760.664062 437.988281 C 746.601562 448.367188 733.378906 459.753906 719.320312 470.136719 C 711.617188 475.996094 704.085938 482.527344 697.222656 489.390625 C 697.058594 489.390625 697.058594 489.222656 696.890625 489.222656 C 693.875 487.550781 691.03125 492.070312 694.042969 493.746094 C 709.777344 502.621094 725.679688 510.65625 739.40625 522.546875 C 753.464844 534.601562 770.371094 543.140625 783.929688 555.699219 C 790.289062 561.558594 795.980469 567.253906 803.011719 572.445312 C 810.039062 577.464844 816.902344 582.65625 823.765625 587.679688 C 838.664062 598.730469 853.894531 608.777344 866.949219 622.007812 C 879.503906 634.566406 893.5625 645.28125 906.953125 657.167969 C 915.492188 664.703125 923.527344 667.046875 932.0625 658.175781 C 940.097656 649.96875 944.949219 634.0625 943.945312 622.675781 C 943.445312 614.640625 915.492188 581.988281 912.644531 579.140625 Z M 712.957031 293.316406 C 720.824219 294.320312 727.6875 288.292969 729.527344 280.925781 C 732.875 267.699219 723.503906 255.640625 725.007812 242.246094 C 732.039062 241.074219 737.898438 241.074219 742.585938 234.042969 C 747.105469 227.007812 750.785156 216.125 749.613281 207.753906 C 748.441406 199.382812 742.585938 190.171875 737.5625 183.304688 C 733.042969 177.109375 727.351562 174.933594 720.324219 172.757812 C 712.457031 170.246094 708.269531 170.246094 701.574219 175.605469 C 695.71875 180.292969 692.871094 185.148438 691.03125 192.515625 C 688.855469 201.726562 689.691406 216.292969 688.6875 225.835938 C 687.515625 237.558594 678.308594 251.625 679.3125 252.796875 C 679.816406 253.464844 680.320312 254.300781 680.820312 254.972656 C 680.988281 255.140625 680.988281 255.308594 681.15625 255.472656 C 681.324219 255.640625 681.488281 255.808594 681.65625 256.144531 C 681.824219 256.480469 682.160156 256.644531 682.328125 256.8125 C 691.53125 268.535156 696.890625 291.308594 712.957031 293.316406 Z M 712.957031 293.316406 " fill-opacity="1" fill-rule="nonzero"/><path fill="#14110a" d="M 619.558594 497.929688 C 619.558594 497.929688 619.390625 497.929688 619.390625 497.929688 C 617.214844 497.261719 615.039062 495.753906 612.863281 494.75 C 610.6875 493.746094 608.511719 492.90625 606.335938 492.238281 C 602.152344 490.730469 597.796875 489.222656 593.613281 487.886719 C 585.414062 485.207031 577.546875 482.191406 569.679688 478.507812 C 565.996094 476.667969 562.3125 475.160156 559.300781 472.3125 C 558.296875 471.308594 557.125 470.804688 555.785156 470.136719 C 553.945312 469.132812 552.605469 467.625 550.929688 466.621094 C 550.09375 466.117188 549.59375 465.78125 549.089844 465.949219 C 548.921875 465.78125 548.589844 465.78125 548.421875 465.949219 C 548.421875 465.949219 548.253906 466.117188 548.253906 466.117188 C 548.085938 466.285156 548.085938 466.285156 548.085938 466.453125 C 547.917969 466.453125 547.75 466.621094 547.75 466.621094 C 546.414062 468.292969 540.554688 473.484375 540.886719 475.996094 C 541.054688 477.671875 543.566406 478.171875 544.90625 478.84375 C 552.101562 482.359375 559.804688 484.703125 567.667969 486.710938 C 571.519531 487.71875 575.371094 489.558594 579.21875 490.730469 C 583.238281 491.902344 587.253906 493.410156 591.4375 494.414062 C 596.125 495.417969 600.980469 495.921875 605.832031 496.59375 C 609.011719 497.09375 612.863281 497.597656 616.210938 498.601562 C 617.214844 499.101562 618.21875 499.4375 619.222656 499.773438 C 619.894531 499.941406 620.394531 498.433594 619.558594 497.929688 Z M 762.671875 461.09375 C 761.332031 463.941406 759.65625 466.785156 757.984375 469.632812 C 755.472656 476.332031 749.613281 481.855469 745.09375 487.046875 C 738.234375 494.75 731.203125 502.285156 724.84375 510.320312 C 724.675781 510.488281 724.339844 510.65625 724.003906 510.488281 C 723.835938 510.488281 723.503906 510.488281 723.167969 510.320312 C 720.824219 508.648438 717.8125 507.808594 715.300781 506.304688 C 715.300781 506.304688 715.132812 506.304688 715.132812 506.304688 C 714.964844 506.304688 714.800781 506.136719 714.632812 506.136719 C 714.128906 505.96875 713.960938 505.464844 713.960938 504.964844 C 713.960938 504.460938 714.296875 503.960938 714.632812 503.625 C 714.632812 503.625 714.632812 503.457031 714.800781 503.457031 C 714.800781 503.457031 714.800781 503.289062 714.964844 503.289062 C 714.964844 503.289062 715.132812 503.121094 715.132812 503.121094 C 715.132812 503.121094 715.300781 503.121094 715.300781 502.953125 C 719.988281 499.269531 724.507812 495.085938 729.195312 491.234375 C 733.546875 487.550781 737.0625 483.027344 741.414062 479.34375 C 745.09375 475.160156 748.945312 471.476562 753.296875 468.125 C 753.464844 467.960938 753.632812 467.960938 753.800781 467.960938 C 753.800781 467.960938 753.800781 467.792969 753.96875 467.792969 C 756.476562 465.113281 758.820312 462.265625 761.332031 459.585938 C 761.832031 458.75 763.171875 459.921875 762.671875 461.09375 Z M 777.902344 316.589844 C 775.558594 325.296875 775.058594 334.003906 771.039062 342.210938 C 770.203125 343.882812 769.367188 345.726562 768.363281 347.398438 C 767.691406 348.574219 766.855469 350.917969 765.851562 351.753906 C 764.175781 353.09375 761.5 352.421875 759.65625 352.089844 C 759.65625 352.089844 759.492188 352.089844 759.492188 352.089844 C 758.988281 352.257812 758.320312 352.089844 758.320312 351.417969 C 757.984375 349.578125 759.65625 347.566406 760.496094 346.0625 C 762.335938 343.214844 763.84375 340.367188 765.851562 337.6875 C 770.539062 330.992188 773.046875 323.457031 776.394531 316.089844 C 776.730469 315.25 778.238281 315.585938 777.902344 316.589844 Z M 611.023438 289.128906 C 610.019531 285.113281 608.847656 280.925781 608.007812 276.90625 C 608.007812 276.738281 608.007812 276.738281 608.007812 276.570312 C 607.839844 275.566406 607.675781 274.5625 607.507812 273.390625 C 607.171875 271.214844 606.835938 268.535156 606.835938 266.359375 C 606.835938 265.1875 607.339844 263.847656 606.671875 262.839844 C 605.664062 261.167969 603.488281 261.835938 601.984375 262.507812 C 601.480469 262.675781 601.3125 263.34375 601.480469 263.679688 C 600.8125 264.015625 600.8125 265.1875 600.980469 266.023438 C 601.816406 270.542969 603.488281 275.066406 604.828125 279.417969 C 606.335938 283.773438 607.507812 288.460938 609.515625 292.480469 C 609.515625 292.648438 609.683594 292.648438 609.683594 292.648438 C 610.019531 293.484375 610.519531 294.488281 610.855469 295.324219 C 611.355469 297.503906 611.691406 299.847656 612.863281 301.855469 C 613.199219 302.527344 614.371094 302.191406 614.371094 301.355469 C 614.371094 297.167969 612.195312 292.980469 611.023438 289.128906 Z M 611.023438 289.128906 " fill-opacity="1" fill-rule="nonzero"/><path fill="#ecf284" d="M 776.0625 434.304688 C 769.367188 429.28125 761.5 428.441406 752.628906 423.753906 C 746.601562 420.574219 733.878906 415.71875 727.019531 412.535156 C 712.289062 406.003906 705.59375 411.195312 690.363281 412.199219 C 683.164062 412.703125 676.132812 414.042969 668.769531 414.210938 C 658.894531 414.378906 651.027344 411.867188 641.652344 409.523438 C 632.949219 407.511719 624.914062 405.167969 616.546875 402.152344 C 612.695312 400.816406 608.847656 399.476562 605.164062 397.800781 C 604.160156 397.296875 602.652344 396.964844 601.144531 396.628906 C 600.476562 395.121094 598.804688 393.949219 596.628906 394.285156 C 595.621094 394.453125 594.449219 394.453125 593.445312 394.621094 C 590.601562 394.953125 587.757812 398.804688 585.746094 401.820312 C 580.894531 408.347656 577.710938 414.378906 570.515625 423.753906 C 565.996094 429.613281 559.300781 439.328125 554.949219 445.1875 C 551.433594 450.042969 549.257812 454.5625 543.902344 460.089844 C 542.898438 461.09375 547.417969 467.625 548.253906 468.796875 C 551.265625 473.316406 555.285156 475.492188 559.96875 477.839844 C 565.828125 480.515625 571.183594 484.199219 577.210938 486.710938 C 590.265625 492.574219 603.488281 497.765625 616.546875 503.625 C 628.261719 508.816406 638.808594 512.164062 651.527344 514.007812 C 655.378906 514.507812 658.726562 515.679688 662.410156 513.671875 C 666.089844 511.660156 670.441406 505.96875 673.121094 502.953125 C 673.957031 501.949219 675.296875 498.9375 676.132812 498.265625 C 679.984375 495.753906 682.160156 499.773438 684.335938 502.453125 C 687.179688 505.800781 689.355469 510.15625 692.703125 513 C 700.070312 519.027344 705.59375 512.667969 711.117188 507.644531 C 722.5 497.261719 734.214844 487.71875 745.765625 477.671875 C 751.121094 472.984375 755.640625 467.792969 760.328125 462.433594 C 763.171875 459.253906 769.03125 450.878906 771.039062 447.363281 C 774.386719 441.671875 778.40625 436.144531 776.0625 434.304688 Z M 900.09375 381.222656 C 911.140625 381.222656 993.324219 381.222656 993.324219 381.222656 L 1006.714844 503.289062 L 891.386719 513.839844 L 876.324219 499.101562 L 887.707031 389.261719 Z M 1049.0625 571.4375 C 1040.859375 584.5 1032.828125 597.726562 1024.792969 610.789062 C 1017.761719 622.175781 1009.394531 632.554688 1002.195312 643.941406 C 994.160156 656.667969 985.960938 669.726562 977.085938 682.117188 C 972.402344 688.648438 967.210938 694.84375 962.527344 701.207031 C 959.011719 706.0625 956.164062 711.921875 951.644531 716.109375 C 947.628906 719.792969 941.9375 713.597656 945.953125 709.914062 C 950.808594 705.226562 953.652344 698.695312 958.007812 693.503906 C 963.027344 687.476562 967.714844 681.113281 972.066406 674.75 C 980.433594 662.191406 988.804688 649.800781 997.007812 637.242188 C 1012.238281 613.96875 1027.46875 590.863281 1042.367188 567.253906 C 1044.710938 563.234375 1051.40625 567.421875 1049.0625 571.4375 Z M 1049.0625 571.4375 " fill-opacity="1" fill-rule="nonzero"/><path fill="#ff4162" d="M 1045.882812 566.582031 C 1029.144531 598.230469 951.476562 709.746094 946.792969 712.425781 C 937.417969 701.542969 914.152344 662.023438 914.152344 662.023438 L 942.605469 618.65625 C 957.671875 616.480469 973.574219 610.285156 989.140625 595.71875 C 1004.875 581.316406 1029.8125 553.691406 1045.882812 566.582031 Z M 775.558594 286.117188 C 763.003906 274.730469 748.109375 269.035156 732.710938 262.003906 C 729.195312 260.328125 724.675781 264.015625 727.019531 267.863281 C 733.546875 277.910156 720.65625 290.136719 710.28125 288.292969 C 702.582031 286.953125 696.554688 277.410156 693.207031 271.382812 C 690.863281 267.027344 687.851562 263.175781 685.003906 258.992188 C 682.996094 255.976562 681.324219 252.292969 677.640625 250.953125 C 673.457031 249.277344 667.261719 250.785156 662.742188 250.785156 C 655.714844 250.617188 648.851562 249.445312 641.820312 249.78125 C 630.105469 250.285156 617.046875 253.128906 606.167969 257.484375 C 603.488281 258.488281 603.488281 262.003906 604.996094 264.015625 C 606.671875 274.5625 608.511719 284.441406 611.023438 294.65625 C 612.527344 300.515625 614.535156 306.042969 616.210938 311.902344 C 616.878906 314.246094 616.878906 316.257812 616.714844 318.097656 C 620.730469 317.929688 624.914062 317.59375 628.933594 316.757812 C 632.445312 316.089844 635.792969 319.101562 634.621094 322.785156 C 629.097656 341.707031 613.367188 357.613281 601.816406 373.019531 C 596.292969 380.386719 590.601562 387.921875 584.742188 395.121094 C 589.933594 397.96875 595.121094 400.816406 600.476562 402.488281 C 608.511719 405 616.878906 406.171875 624.914062 408.347656 C 644.164062 413.539062 662.742188 416.386719 682.660156 417.222656 C 697.222656 417.894531 711.117188 415.382812 725.175781 413.371094 C 727.519531 402.488281 732.207031 391.605469 735.050781 381.390625 C 737.5625 372.347656 740.074219 363.308594 741.582031 354.097656 C 744.59375 353.59375 752.628906 353.929688 754.972656 355.941406 C 756.644531 353.929688 765.683594 340.871094 766.6875 339.363281 C 770.703125 333.835938 773.382812 328.3125 775.558594 321.949219 C 777.734375 315.585938 782.589844 304.367188 782.085938 297.503906 C 782.589844 291.976562 779.074219 289.464844 775.558594 286.117188 Z M 1004.875 528.742188 L 1124.050781 469.96875 L 1042.03125 356.777344 C 1028.640625 361.128906 951.144531 396.796875 951.144531 396.796875 L 944.449219 406.339844 L 980.9375 525.726562 Z M 452.34375 579.140625 L 491.511719 420.40625 L 405.976562 405.503906 Z M 452.34375 579.140625 " fill-opacity="1" fill-rule="nonzero"/><path fill="#14110a" d="M 684 472.144531 C 682.660156 481.6875 678.8125 489.894531 673.789062 498.097656 C 670.277344 503.792969 669.105469 510.824219 665.421875 516.015625 C 663.914062 518.023438 660.566406 516.183594 661.90625 514.171875 C 663.746094 511.496094 663.914062 508.480469 665.085938 505.464844 C 666.257812 502.285156 668.265625 499.269531 670.109375 496.425781 C 674.792969 488.554688 678.644531 480.683594 679.984375 471.476562 C 680.484375 468.796875 684.335938 469.632812 684 472.144531 Z M 667.429688 300.515625 C 668.433594 298.675781 669.269531 296.664062 669.773438 294.65625 C 670.277344 292.648438 669.941406 289.128906 670.945312 287.457031 C 672.117188 285.78125 669.4375 283.941406 668.265625 285.613281 C 666.59375 288.460938 667.261719 291.808594 666.425781 294.824219 C 665.085938 299.511719 662.410156 303.863281 658.726562 307.046875 C 652.199219 312.570312 643.996094 314.917969 635.792969 315.585938 C 634.457031 315.585938 634.289062 317.761719 635.628906 317.929688 C 643.828125 318.601562 652.867188 315.417969 659.394531 310.394531 C 663.078125 307.714844 665.589844 304.367188 667.429688 300.515625 Z M 743.253906 194.023438 C 758.484375 180.125 748.277344 163.378906 736.894531 151.15625 C 724.339844 137.59375 706.597656 130.730469 688.519531 138.097656 C 678.476562 142.117188 668.265625 148.3125 661.238281 156.683594 C 654.039062 122.691406 607.839844 127.214844 586.917969 149.648438 C 575.703125 161.707031 571.351562 179.289062 576.707031 195.027344 C 580.054688 204.90625 585.746094 211.269531 594.285156 217.128906 C 598.300781 219.976562 602.820312 222.488281 607.339844 224.496094 C 610.351562 225.835938 617.214844 226.839844 621.566406 228.347656 C 618.890625 230.191406 616.210938 231.863281 614.871094 235.882812 C 613.199219 241.074219 616.042969 245.59375 620.394531 248.609375 C 632.28125 256.8125 648.515625 253.96875 660.234375 247.4375 C 667.597656 243.417969 675.632812 239.066406 681.824219 233.539062 C 684.335938 231.363281 686.679688 228.851562 688.6875 226.171875 C 689.355469 225.167969 691.367188 221.652344 692.035156 221.316406 C 694.042969 220.3125 695.71875 222.152344 698.730469 220.3125 C 701.074219 218.972656 702.914062 216.796875 704.421875 214.449219 C 708.605469 208.089844 708.269531 202.394531 708.4375 196.03125 C 710.113281 197.035156 711.617188 197.875 713.628906 198.207031 C 716.976562 198.878906 720.992188 199.382812 724.339844 199.714844 C 731.539062 200.21875 738.234375 198.710938 743.253906 194.023438 Z M 613.867188 406.84375 C 613.53125 413.875 607.003906 421.746094 601.816406 425.929688 C 596.792969 429.78125 581.058594 438.320312 575.035156 433.800781 C 573.195312 432.460938 571.183594 435.308594 573.027344 436.648438 C 576.707031 439.328125 579.890625 439.328125 584.242188 437.988281 C 589.933594 436.144531 596.292969 434.136719 601.144531 430.953125 C 608.34375 426.265625 617.882812 416.21875 617.382812 407.011719 C 617.046875 404.664062 613.867188 404.664062 613.867188 406.84375 Z M 738.398438 418.5625 C 734.046875 419.234375 731.035156 420.90625 726.683594 418.898438 C 723.503906 417.558594 720.65625 415.882812 717.308594 415.046875 C 715.300781 414.710938 714.464844 417.894531 716.472656 418.230469 C 720.824219 419.066406 724.507812 422.078125 728.859375 422.917969 C 732.375 423.585938 735.386719 422.078125 738.734375 421.410156 C 740.742188 421.242188 740.410156 418.230469 738.398438 418.5625 Z M 439.121094 439.492188 C 438.785156 441.671875 442.46875 441.839844 442.636719 439.660156 C 443.472656 432.796875 447.320312 425.929688 449.332031 419.402344 C 451.507812 412.367188 453.347656 405.167969 453.851562 397.800781 C 454.6875 386.75 453.515625 373.519531 446.988281 364.3125 C 445.816406 362.636719 442.96875 364.3125 444.140625 365.988281 C 451.671875 376.703125 451.839844 392.609375 449.496094 405 C 447.320312 416.722656 440.792969 427.773438 439.121094 439.492188 Z M 399.28125 366.65625 C 400.121094 365.316406 401.292969 364.144531 402.296875 363.140625 C 403.636719 361.96875 405.644531 360.125 407.484375 359.957031 C 409.160156 359.625 408.65625 356.777344 406.984375 356.945312 C 406.816406 356.945312 406.648438 356.945312 406.480469 356.945312 C 406.3125 356.945312 406.3125 356.945312 406.144531 357.113281 C 404.304688 357.613281 402.296875 359.121094 400.789062 360.292969 C 399.28125 361.632812 397.777344 363.140625 396.773438 364.648438 C 395.769531 366.320312 398.109375 368.332031 399.28125 366.65625 Z M 506.074219 520.367188 C 500.046875 527.066406 496.199219 534.097656 493.015625 542.136719 C 492.347656 543.140625 492.011719 544.144531 491.84375 545.484375 C 491.84375 545.652344 491.679688 545.820312 491.679688 545.988281 C 491.34375 548.667969 495.191406 549.167969 496.03125 546.824219 C 497.871094 541.464844 499.710938 536.109375 503.058594 531.421875 C 505.402344 528.238281 508.75 525.558594 509.085938 521.539062 C 509.253906 520.035156 507.078125 519.363281 506.074219 520.367188 Z M 460.378906 652.144531 C 449.164062 627.53125 381.371094 379.550781 380.703125 377.039062 C 369.824219 339.195312 353.585938 281.929688 353.253906 278.582031 C 353.253906 276.90625 350.238281 264.515625 343.542969 236.554688 C 338.1875 214.117188 331.996094 188.664062 331.492188 184.980469 C 331.324219 183.304688 330.824219 181.464844 330.320312 179.289062 C 328.480469 171.25 325.96875 160.199219 332.328125 145.964844 L 328.816406 144.292969 C 321.785156 159.695312 324.628906 172.085938 326.472656 180.125 C 326.972656 182.132812 327.308594 183.976562 327.476562 185.484375 C 327.976562 189.5 333.835938 213.949219 339.527344 237.558594 C 344.046875 255.976562 349.066406 276.90625 349.234375 278.75 C 349.234375 282.097656 370.324219 355.773438 376.855469 378.378906 C 379.699219 388.589844 445.480469 629.207031 456.863281 653.988281 C 466.738281 675.753906 476.445312 681.449219 492.347656 681.449219 C 494.859375 681.449219 497.703125 681.28125 500.550781 681.113281 L 500.214844 677.261719 C 481.46875 678.433594 471.425781 676.59375 460.378906 652.144531 Z M 950.140625 308.050781 C 962.191406 298.339844 977.421875 297.503906 992.488281 296.664062 C 1006.378906 295.828125 1020.941406 297.335938 1034.667969 299.34375 C 1036.84375 299.679688 1037.511719 296.332031 1035.335938 295.996094 C 1020.105469 293.652344 1004.539062 292.144531 989.140625 293.484375 C 974.242188 294.65625 960.183594 295.660156 948.128906 305.371094 C 946.625 306.710938 948.464844 309.390625 950.140625 308.050781 Z M 997.507812 514.007812 C 995.332031 508.816406 993.15625 503.625 990.980469 498.433594 C 986.628906 487.550781 981.773438 476.667969 978.09375 465.449219 C 974.242188 453.894531 970.226562 442.507812 965.875 431.289062 C 963.363281 424.757812 960.851562 418.394531 958.339844 411.867188 C 957.167969 409.019531 955.664062 406.171875 954.492188 403.328125 C 953.820312 401.820312 953.488281 400.480469 952.316406 399.308594 C 952.148438 399.140625 951.980469 399.308594 952.148438 399.476562 C 953.152344 401.148438 953.152344 403.492188 953.820312 405.167969 C 954.824219 407.847656 956.164062 410.527344 957.167969 413.207031 C 959.511719 419.402344 962.023438 425.597656 964.199219 431.792969 C 968.886719 444.351562 972.734375 457.242188 977.421875 469.800781 C 984.621094 489.222656 992.488281 508.648438 1001.023438 527.734375 C 1001.023438 528.238281 1001.191406 528.742188 1001.691406 528.742188 C 1001.691406 528.742188 1001.859375 528.742188 1001.859375 528.742188 C 1002.53125 528.910156 1003.03125 528.070312 1002.699219 527.570312 C 1000.855469 523.214844 999.351562 518.527344 997.507812 514.007812 Z M 983.113281 600.40625 C 983.113281 597.726562 978.929688 597.390625 978.929688 600.070312 C 978.929688 602.414062 978.929688 604.761719 979.097656 606.9375 C 979.429688 609.449219 980.433594 611.792969 980.433594 614.304688 C 980.433594 616.648438 984.285156 616.648438 984.453125 614.304688 C 984.621094 612.128906 983.949219 610.117188 983.449219 608.109375 C 982.945312 605.597656 983.113281 602.917969 983.113281 600.40625 Z M 744.929688 217.96875 C 743.921875 219.472656 744.425781 222.152344 743.757812 223.996094 C 743.253906 225.167969 742.417969 226.003906 741.582031 226.839844 C 739.070312 229.351562 736.726562 231.027344 733.042969 230.691406 C 729.195312 230.359375 727.351562 228.179688 725.679688 224.832031 C 724.003906 221.316406 722.332031 217.96875 723 213.949219 C 723.167969 213.445312 723.503906 212.945312 724.171875 212.945312 C 730.699219 212.777344 737.226562 216.125 743.757812 216.628906 C 743.921875 216.628906 744.257812 216.796875 744.425781 216.796875 C 744.761719 216.628906 745.429688 217.296875 744.929688 217.96875 Z M 742.585938 218.46875 C 739.40625 218.300781 736.558594 217.464844 733.378906 216.796875 C 730.867188 216.292969 727.855469 215.457031 725.175781 215.289062 C 725.007812 220.480469 728.691406 228.515625 734.214844 228.347656 C 737.0625 228.179688 740.910156 225.503906 741.914062 222.65625 C 742.417969 221.316406 742.417969 219.808594 742.585938 218.46875 Z M 971.0625 613.46875 C 970.726562 610.957031 971.0625 607.941406 969.890625 605.597656 C 969.054688 603.921875 966.542969 605.09375 967.378906 606.769531 C 968.050781 608.277344 967.546875 610.117188 967.714844 611.625 C 967.714844 613.300781 967.882812 614.972656 968.214844 616.648438 C 968.550781 618.65625 968.550781 621 969.222656 623.011719 C 970.058594 625.019531 972.902344 624.183594 972.402344 622.175781 C 971.730469 619.328125 971.5625 616.3125 971.0625 613.46875 Z M 1036.339844 354.933594 C 1026.800781 354.433594 1017.257812 354.433594 1007.886719 353.929688 C 1004.539062 349.242188 1001.023438 344.886719 997.171875 340.535156 C 989.472656 331.996094 980.601562 323.289062 968.214844 323.625 C 966.375 323.625 966.207031 326.636719 968.214844 326.636719 C 983.113281 326.300781 994.496094 341.039062 1002.53125 351.921875 C 1003.03125 352.589844 1003.367188 353.261719 1003.867188 353.761719 C 999.851562 353.59375 995.835938 353.261719 991.648438 352.757812 C 985.792969 352.089844 979.429688 351.085938 973.238281 349.578125 C 970.390625 341.875 965.203125 332.332031 956.835938 331.660156 C 954.824219 331.492188 954.660156 334.675781 956.667969 334.84375 C 962.859375 335.34375 966.878906 341.539062 969.722656 348.574219 C 960.515625 345.726562 952.316406 340.871094 947.964844 332.496094 C 946.792969 330.320312 943.277344 331.828125 944.449219 334.003906 C 945.621094 336.179688 946.960938 338.023438 948.296875 339.699219 C 948.632812 349.578125 951.3125 357.28125 955.832031 366.152344 C 959.011719 372.683594 968.71875 386.75 970.058594 388.257812 L 973.738281 386.582031 C 971.398438 383.566406 969.054688 380.722656 968.050781 378.878906 C 961.355469 367.160156 953.988281 357.113281 952.484375 343.714844 C 957.671875 347.902344 964.03125 350.246094 971.0625 352.089844 C 972.570312 356.609375 973.574219 361.128906 974.242188 364.3125 C 976.25 372.851562 983.785156 391.605469 984.285156 400.3125 C 984.285156 400.980469 984.621094 401.820312 985.457031 401.988281 C 985.625 401.988281 986.964844 402.152344 987.800781 401.148438 C 989.140625 399.476562 981.105469 376.367188 980.601562 374.859375 C 978.59375 368.332031 976.585938 360.460938 974.410156 353.261719 C 976.25 353.761719 977.925781 354.097656 979.765625 354.601562 C 988.46875 356.777344 997.675781 357.949219 1006.882812 358.617188 C 1010.898438 364.480469 1021.777344 380.050781 1025.292969 386.246094 C 1026.464844 388.257812 1029.644531 386.414062 1028.472656 384.40625 C 1025.125 379.046875 1014.414062 363.976562 1010.898438 358.785156 C 1019.601562 359.121094 1028.140625 359.121094 1036.675781 358.617188 C 1038.851562 358.117188 1038.351562 355.101562 1036.339844 354.933594 Z M 898.921875 385.578125 C 899.757812 387.25 899.253906 390.601562 899.085938 392.441406 C 898.921875 395.289062 898.753906 398.136719 898.753906 400.980469 C 898.753906 406.84375 898.585938 412.871094 898.25 418.730469 C 897.75 430.621094 897.414062 442.339844 896.242188 454.230469 C 895.738281 458.917969 895.40625 463.4375 895.070312 467.960938 C 894.734375 473.316406 895.070312 479.011719 894.566406 484.367188 C 894.066406 488.890625 893.5625 493.410156 893.398438 497.929688 C 893.230469 503.121094 891.21875 508.3125 891.386719 513.503906 C 891.386719 514.84375 893.398438 514.507812 893.398438 513.335938 C 893.398438 508.648438 895.070312 503.960938 895.40625 499.269531 C 895.738281 494.414062 896.242188 489.726562 896.578125 484.871094 C 896.910156 479.511719 896.242188 474.15625 896.910156 468.964844 C 897.414062 463.605469 897.75 458.078125 898.25 452.722656 C 899.253906 441 899.925781 429.449219 900.257812 417.558594 C 900.425781 411.363281 900.425781 405.167969 900.59375 398.972656 C 900.761719 394.785156 902.433594 388.589844 900.425781 384.738281 C 899.925781 384.070312 898.585938 384.738281 898.921875 385.578125 Z M 957.839844 612.128906 C 957.839844 609.617188 953.820312 609.617188 953.820312 612.128906 C 953.820312 615.308594 953.988281 618.65625 954.492188 621.839844 C 954.992188 624.851562 954.824219 628.203125 955.996094 631.046875 C 956.5 632.386719 958.507812 632.054688 959.011719 630.714844 C 960.015625 627.867188 959.179688 624.851562 958.675781 622.007812 C 958.171875 618.65625 957.839844 615.476562 957.839844 612.128906 Z M 748.777344 298.84375 C 746.9375 302.859375 748.277344 308.886719 748.109375 313.074219 C 747.773438 321.613281 747.105469 330.152344 745.261719 338.527344 C 745.09375 339.363281 746.101562 339.53125 746.601562 339.027344 C 749.78125 335.34375 749.78125 328.648438 750.117188 324.125 C 750.453125 320.105469 750.785156 316.089844 750.953125 312.070312 C 751.121094 309.054688 749.949219 303.195312 751.289062 300.179688 C 751.957031 298.507812 749.449219 297.335938 748.777344 298.84375 Z M 939.59375 335.34375 C 933.066406 338.527344 929.382812 348.40625 927.710938 355.101562 C 926.371094 360.292969 925.867188 365.316406 925.535156 370.675781 C 925.03125 376.535156 927.207031 390.933594 925.703125 396.460938 C 924.863281 399.308594 927.710938 399.976562 929.050781 397.128906 C 932.230469 390.433594 928.378906 375.027344 929.214844 367.492188 C 930.222656 358.285156 932.398438 343.714844 941.101562 338.527344 C 942.941406 337.6875 941.601562 334.507812 939.59375 335.34375 Z M 939.59375 335.34375 " fill-opacity="1" fill-rule="nonzero"/><path fill="#10aeb2" d="M 709.945312 193.519531 C 707.9375 191.511719 706.261719 189 704.253906 186.988281 C 700.070312 182.804688 693.875 184.476562 688.855469 186.320312 C 681.992188 188.832031 676.132812 193.019531 670.277344 197.203125 C 663.746094 201.726562 652.367188 205.742188 646.84375 197.707031 C 646.171875 196.871094 647.511719 195.695312 648.011719 196.535156 C 653.539062 204.238281 664.417969 199.214844 670.441406 194.859375 C 675.296875 191.175781 680.320312 187.996094 686.007812 185.484375 C 690.527344 183.472656 697.058594 181.296875 702.078125 182.804688 C 706.09375 184.144531 708.605469 189 711.453125 192.011719 C 712.121094 193.019531 710.78125 194.523438 709.945312 193.519531 Z M 642.15625 193.183594 C 643.828125 194.523438 644.332031 196.535156 646.339844 197.371094 C 647.34375 197.707031 647.847656 196.03125 646.84375 195.695312 C 645.335938 195.027344 644.5 192.683594 642.992188 191.679688 C 641.316406 190.507812 638.640625 189.667969 636.632812 189.5 C 630.605469 188.664062 626.421875 192.851562 622.238281 196.535156 C 616.378906 201.890625 608.679688 205.742188 600.644531 203.902344 C 595.621094 202.730469 592.273438 199.714844 589.261719 195.53125 C 587.753906 193.351562 585.246094 189.167969 586.75 186.320312 C 587.085938 185.484375 585.914062 184.8125 585.414062 185.652344 C 582.902344 190.507812 587.921875 197.035156 590.9375 200.386719 C 595.289062 204.90625 602.316406 207.082031 608.34375 205.910156 C 615.542969 204.402344 620.394531 200.386719 625.75 195.53125 C 630.105469 191.847656 636.964844 189 642.15625 193.183594 Z M 697.558594 208.757812 C 689.859375 203.734375 679.480469 209.425781 672.785156 214.117188 C 667.429688 217.96875 660.734375 222.488281 653.871094 222.488281 C 650.859375 222.488281 646.84375 221.484375 645.835938 218.300781 C 645.335938 216.460938 645.671875 210.597656 646.507812 209.261719 C 646.675781 209.09375 646.675781 208.925781 646.675781 208.757812 C 646.675781 208.421875 646.675781 208.089844 646.171875 207.921875 C 646.003906 207.753906 645.835938 207.753906 645.671875 207.753906 C 643.828125 207.25 642.992188 206.414062 640.816406 206.582031 C 638.808594 206.75 636.964844 207.753906 635.125 208.757812 C 628.09375 212.945312 621.902344 220.3125 613.199219 215.789062 C 612.359375 215.289062 611.355469 216.628906 612.359375 217.128906 C 617.550781 219.976562 621.734375 219.976562 626.589844 216.796875 C 629.769531 214.785156 632.613281 212.273438 635.792969 210.433594 C 638.136719 209.09375 640.3125 208.421875 643.160156 208.925781 C 643.828125 209.09375 643.996094 209.261719 644.332031 209.425781 C 643.160156 212.441406 642.992188 217.632812 644.332031 220.144531 C 646.003906 223.660156 651.027344 224.664062 654.542969 224.496094 C 660.734375 224.164062 666.59375 220.8125 671.613281 217.464844 C 678.140625 213.109375 687.851562 205.910156 695.886719 210.433594 C 696.050781 210.597656 696.21875 210.765625 696.554688 210.765625 C 696.722656 210.765625 696.722656 210.765625 696.890625 210.765625 C 698.0625 210.597656 698.394531 209.261719 697.558594 208.757812 Z M 718.648438 168.402344 C 713.796875 163.546875 706.261719 161.035156 699.566406 160.367188 C 681.824219 158.523438 668.9375 177.109375 653.203125 181.96875 C 651.359375 176.105469 650.191406 169.074219 643.996094 166.394531 C 638.472656 163.882812 631.609375 166.394531 626.921875 169.574219 C 619.390625 174.597656 609.683594 185.316406 600.476562 177.445312 C 593.113281 171.082031 592.273438 157.6875 598.132812 150.320312 C 598.804688 149.484375 597.632812 148.3125 596.960938 149.148438 C 589.09375 158.691406 591.773438 178.785156 605.332031 181.96875 C 613.199219 183.808594 620.394531 176.945312 626.253906 172.757812 C 631.109375 169.242188 638.472656 165.390625 644.332031 169.074219 C 649.519531 172.253906 649.855469 178.785156 651.863281 183.976562 C 652.199219 184.980469 653.371094 184.476562 653.703125 183.808594 C 667.765625 179.957031 678.140625 167.398438 692.371094 163.714844 C 699.734375 161.875 708.773438 164.050781 714.964844 168.402344 C 718.480469 170.914062 720.492188 174.265625 721.996094 178.117188 C 723.335938 181.128906 725.34375 185.316406 725.511719 188.496094 C 725.679688 189.835938 727.855469 189.667969 727.6875 188.164062 C 727.519531 184.980469 725.679688 181.800781 724.675781 178.785156 C 723.167969 174.765625 721.328125 171.082031 718.648438 168.402344 Z M 627.59375 151.996094 C 631.109375 152.832031 634.621094 152.496094 637.96875 151.492188 C 640.148438 150.824219 642.15625 149.984375 644.164062 149.148438 C 645.671875 148.476562 647.34375 147.140625 648.851562 146.636719 C 649.519531 146.972656 650.523438 146.636719 650.355469 145.632812 C 650.355469 145.464844 650.355469 145.296875 650.355469 145.296875 C 650.355469 144.792969 649.6875 144.292969 649.183594 144.460938 C 645.503906 145.296875 641.988281 148.144531 638.136719 149.316406 C 634.957031 150.320312 631.945312 150.65625 628.597656 150.152344 C 624.246094 149.316406 618.386719 145.800781 620.730469 140.105469 C 621.230469 138.933594 619.390625 137.929688 618.890625 139.269531 C 616.378906 145.632812 621.734375 150.824219 627.59375 151.996094 Z M 735.722656 168.238281 C 732.542969 162.878906 728.691406 157.019531 723.503906 153.5 C 717.476562 149.484375 710.613281 146.132812 703.417969 145.296875 C 698.5625 144.628906 692.703125 144.628906 687.851562 145.632812 C 683.832031 146.46875 680.320312 148.3125 676.46875 149.316406 C 675.632812 149.484375 676.132812 150.824219 676.804688 150.65625 C 681.488281 149.484375 685.675781 147.304688 690.527344 146.804688 C 693.375 146.46875 696.21875 146.636719 699.066406 146.636719 C 706.765625 146.636719 714.296875 149.484375 720.824219 153.5 C 726.015625 156.851562 730.53125 162.207031 733.546875 167.398438 C 736.894531 173.261719 739.40625 179.457031 739.070312 186.320312 C 739.070312 187.324219 740.742188 187.324219 740.742188 186.320312 C 740.910156 179.789062 738.902344 173.761719 735.722656 168.238281 Z M 666.257812 236.71875 C 665.253906 237.894531 661.238281 238.5625 659.730469 238.898438 C 656.382812 239.734375 652.199219 240.070312 648.683594 240.070312 C 645 240.238281 642.15625 239.566406 638.640625 238.394531 C 634.957031 237.054688 632.28125 235.882812 630.773438 231.863281 C 630.269531 230.523438 630.269531 228.515625 630.269531 227.175781 C 630.269531 226.171875 628.765625 226.339844 628.765625 227.34375 C 628.765625 230.691406 629.097656 234.207031 631.609375 236.71875 C 634.121094 239.230469 638.472656 240.738281 641.988281 241.410156 C 646.84375 242.414062 652.199219 241.910156 657.050781 241.242188 C 659.898438 240.90625 665.757812 240.070312 667.765625 237.726562 C 668.433594 237.222656 666.929688 235.882812 666.257812 236.71875 Z M 666.257812 236.71875 " fill-opacity="1" fill-rule="nonzero"/></svg>